<svg xmlns="http://www.w3.org/2000/svg" xmlns:xlink="http://www.w3.org/1999/xlink" fill="none" version="1.1" width="20" height="20" viewBox="0 0 20 20"><defs><clipPath id="master_svg0_94_1831"><rect x="0" y="0" width="20" height="20" rx="0"/></clipPath></defs><g clip-path="url(#master_svg0_94_1831)"><g><path d="M15.6583251953125,13.0083C16.1047251953125,13.0083,16.4666251953125,13.3702,16.4666251953125,13.8167L16.4666251953125,17.05C16.4666251953125,17.4964,16.1047251953125,17.8583,15.6583251953125,17.8583L4.3416581953125,17.8583C3.8952281953125,17.8583,3.5333254843945,17.4964,3.5333251953125,17.05L3.5333251953125,13.8167C3.5333251953125,13.3702,3.8952281953125,13.0083,4.3416581953125,13.0083L15.6583251953125,13.0083ZM15.2541251953125,14.2208L4.7458251953125,14.2208L4.7458251953125,16.6458L15.2541251953125,16.6458L15.2541251953125,14.2208ZM13.3877151953125,14.8271C13.7225251953125,14.8271,13.9939251953125,15.0985,13.9939251953125,15.4333C13.9939251953125,15.7682,13.7225251953125,16.0396,13.3877151953125,16.0396C13.0528951953125,16.0396,12.7814651953125,15.7682,12.7814651953125,15.4333C12.7814651953125,15.0985,13.0528951953125,14.8271,13.3877151953125,14.8271ZM15.6583251953125,7.75417C16.1047251953125,7.75417,16.4666251953125,8.11607,16.4666251953125,8.5625L16.4666251953125,11.79583C16.4666251953125,12.24226,16.1047251953125,12.6042,15.6583251953125,12.6042L4.3416581953125,12.6042C3.8952281953125,12.6042,3.5333254843945,12.24226,3.5333251953125,11.79583L3.5333251953125,8.5625C3.5333251953125,8.11607,3.8952281953125,7.75417,4.3416581953125,7.75417L15.6583251953125,7.75417ZM15.2541251953125,8.96667L4.7458251953125,8.96667L4.7458251953125,11.39167L15.2541251953125,11.39167L15.2541251953125,8.96667ZM13.3877151953125,9.57292C13.7225251953125,9.57292,13.9939251953125,9.84435,13.9939251953125,10.17917C13.9939251953125,10.51399,13.7225251953125,10.78542,13.3877151953125,10.78542C13.0528951953125,10.78542,12.7814651953125,10.51399,12.7814651953125,10.17917C12.7814651953125,9.84435,13.0528951953125,9.57292,13.3877151953125,9.57292ZM15.6583251953125,2.5C16.1047251953125,2.5,16.4666251953125,2.861903,16.4666251953125,3.308333L16.4666251953125,6.54167C16.4666251953125,6.9881,16.1047251953125,7.35,15.6583251953125,7.35L4.3416581953125,7.35C3.8952281953125,7.35,3.5333254843945,6.9881,3.5333251953125,6.54167L3.5333251953125,3.308333C3.5333251953125,2.861903,3.8952281953125,2.5,4.3416581953125,2.5L15.6583251953125,2.5ZM15.2541251953125,3.7125L4.7458251953125,3.7125L4.7458251953125,6.1375L15.2541251953125,6.1375L15.2541251953125,3.7125ZM13.3877151953125,4.31875C13.7225251953125,4.31875,13.9939251953125,4.59018,13.9939251953125,4.925C13.9939251953125,5.2598199999999995,13.7225251953125,5.53125,13.3877151953125,5.53125C13.0528951953125,5.53125,12.7814651953125,5.2598199999999995,12.7814651953125,4.925C12.7814651953125,4.59018,13.0528951953125,4.31875,13.3877151953125,4.31875Z" fill="#2961EF" fill-opacity="1" style="mix-blend-mode:passthrough"/></g></g></svg>