<svg xmlns="http://www.w3.org/2000/svg" xmlns:xlink="http://www.w3.org/1999/xlink" fill="none" version="1.1" width="20" height="20" viewBox="0 0 20 20"><defs><clipPath id="master_svg0_402_04626"><rect x="0" y="0" width="20" height="20" rx="0"/></clipPath></defs><g clip-path="url(#master_svg0_402_04626)"><rect x="0" y="0" width="20" height="20" rx="0"  fill-opacity="1"/><g><path d="M13.6052517578125,17.324320214843752L10.7189217578125,17.324320214843752C10.3663117578125,17.324320214843752,10.0810417578125,17.039020214843752,10.0810417578125,16.68642021484375L10.0810417578125,15.61792021484375C10.0810417578125,15.00842021484375,9.584911757812499,14.51412021484375,8.9771617578125,14.51412021484375C8.3676417578125,14.51412021484375,7.8732817578125,15.01022021484375,7.8732817578125,15.61792021484375L7.8732817578125,16.68642021484375C7.8732817578125,17.039020214843752,7.5880117578125,17.324320214843752,7.2354117578125,17.324320214843752L4.3419417578125,17.324320214843752C3.4311957578125,17.324320214843752,2.6905520281795,16.583620214843748,2.6905520281795,15.67292021484375L2.6905520281795,12.77232021484375C2.6905520281795,12.41972021484375,2.9758237578125,12.13442021484375,3.3284267578125,12.13442021484375L4.4057317578125,12.13442021484375C5.0152517578125,12.13442021484375,5.5096017578125,11.63834021484375,5.5096017578125,11.03058021484375C5.5096017578125,10.42106021484375,5.0134817578124995,9.92670021484375,4.4057217578125005,9.92670021484375L3.3284267578125,9.92670021484375C2.9758237578125,9.92670021484375,2.6905517578125,9.64143021484375,2.6905517578125,9.288830214843749L2.6905517578125,6.40953021484375C2.6905517578125,5.4987902148437495,3.4311957578125,4.75814021484375,4.3419417578125,4.75814021484375L6.7392817578125,4.75814021484375L6.7392817578125,4.29923021484375C6.7392817578125,3.05892021484375,7.7474817578125,2.05072021484375,8.9877917578125,2.05072021484375C10.2281017578125,2.05072021484375,11.2345317578125,3.06069021484375,11.2345317578125,4.29923021484375L11.2345317578125,4.75814021484375L13.6052517578125,4.75814021484375C14.5160517578125,4.75814021484375,15.2566517578125,5.4987902148437495,15.2566517578125,6.40953021484375L15.2566517578125,8.782070214843749L15.8591517578125,8.782070214843749C15.9211517578125,8.782070214843749,15.9796517578125,8.790930214843751,16.0363517578125,8.806880214843751C16.544851757812502,8.88307021484375,17.0126517578125,9.13113021484375,17.3634517578125,9.51563021484375C17.7426517578125,9.930250214843749,17.951751757812502,10.46890021484375,17.951751757812502,11.03058021484375C17.951751757812502,11.59226021484375,17.7426517578125,12.13092021484375,17.3634517578125,12.54552021484375C16.9878517578125,12.95842021484375,16.4757517578125,13.21352021484375,15.9211517578125,13.26842021484375C15.7864517578125,13.28082021484375,15.6518517578125,13.28262021484375,15.5171517578125,13.27202021484375L15.2566517578125,13.27202021484375L15.2566517578125,15.67462021484375C15.2566517578125,16.583620214843748,14.5160517578125,17.324320214843752,13.6052517578125,17.324320214843752ZM11.3567917578125,16.048520214843748L13.6052517578125,16.048520214843748C13.8126517578125,16.048520214843748,13.9809517578125,15.88022021484375,13.9809517578125,15.67292021484375L13.9809517578125,12.63232021484375C13.9809517578125,12.27972021484375,14.2662517578125,11.99448021484375,14.6188517578125,11.99448021484375L15.5455517578125,11.99448021484375C15.5667517578125,11.99448021484375,15.5862517578125,11.99625021484375,15.6075517578125,11.99803021484375C15.6713517578125,12.00512021484375,15.7350517578125,12.00512021484375,15.7988517578125,11.99803021484375C16.2985517578125,11.95019021484375,16.6759517578125,11.53379021484375,16.6759517578125,11.03058021484375C16.6759517578125,10.52737021484375,16.2985517578125,10.11098021484375,15.7988517578125,10.06314021484375L15.7616517578125,10.05782021484375L14.6188517578125,10.05782021484375C14.2662517578125,10.05782021484375,13.9809517578125,9.77255021484375,13.9809517578125,9.41995021484375L13.9809517578125,6.40953021484375C13.9809517578125,6.20222021484375,13.8126517578125,6.033890214843749,13.6052517578125,6.033890214843749L10.5966517578125,6.033890214843749C10.2440517578125,6.033890214843749,9.958781757812499,5.748620214843751,9.958781757812499,5.39602021484375L9.958781757812499,4.29923021484375C9.958781757812499,3.76235021484375,9.5229017578125,3.32647021484375,8.9860217578125,3.32647021484375C8.4491417578125,3.32647021484375,8.0132617578125,3.76235021484375,8.0132617578125,4.29923021484375L8.0132617578125,5.39602021484375C8.0132617578125,5.748620214843751,7.7279917578125,6.033890214843749,7.3753917578125,6.033890214843749L4.3419417578125,6.033890214843749C4.1346317578125,6.033890214843749,3.9663017578125,6.20222021484375,3.9663017578125,6.40953021484375L3.9663017578125,8.64918021484375L4.4057317578125,8.64918021484375C5.7186817578125,8.64918021484375,6.7853517578125,9.71762021484375,6.7853517578125,11.02881021484375C6.7853517578125,12.34002021484375,5.7169117578125,13.40842021484375,4.4057317578125,13.40842021484375L3.9663017578125,13.40842021484375L3.9663017578125,15.67112021484375C3.9663017578125,15.87842021484375,4.1346317578125,16.046720214843752,4.3419417578125,16.046720214843752L6.5957617578125,16.046720214843752L6.5957617578125,15.61622021484375C6.5957617578125,14.30322021484375,7.6642017578125,13.23652021484375,8.975391757812499,13.23652021484375C10.286581757812499,13.23652021484375,11.3550217578125,14.30502021484375,11.3550217578125,15.61622021484375L11.3550217578125,16.048520214843748L11.3567917578125,16.048520214843748Z" fill="#34B8FF" fill-opacity="1" style="mix-blend-mode:passthrough"/></g></g></svg>