<svg xmlns="http://www.w3.org/2000/svg" xmlns:xlink="http://www.w3.org/1999/xlink" fill="none" version="1.1" width="20" height="20" viewBox="0 0 20 20"><defs><clipPath id="master_svg0_170_26844"><rect x="0" y="0" width="20" height="20" rx="0"/></clipPath></defs><g clip-path="url(#master_svg0_170_26844)"><g><path d="M10.3167735546875,18.234245751953125C9.9652135546875,18.234245751953125,9.6813835546875,17.950445751953126,9.6813835546875,17.598865751953127L9.6813835546875,11.087655751953125C9.6813835546875,10.243555751953124,8.9288435546875,9.619165751953124,7.4456835546875,9.232815751953126C6.1840735546875,8.905035751953125,4.9078275546875,8.901385751953125,4.8950145546875,8.901385751953125C4.5434525546875,8.901385751953125,4.2596435546875,8.617579751953125,4.2596435546875,8.266016751953124C4.2596435546875,7.914454751953125,4.5434525546875,7.630645751953125,4.8950145546875,7.630645751953125C4.9536085546875,7.630645751953125,6.3488835546875,7.634298321953125,7.766103554687501,8.004180751953125C10.3991735546875,8.688965751953125,10.952143554687499,10.060395751953125,10.952143554687499,11.089455751953125L10.952143554687499,17.600685751953122C10.9539835546875,17.948645751953123,10.6683335546875,18.234245751953125,10.3167735546875,18.234245751953125Z" fill="#30C29E" fill-opacity="1" style="mix-blend-mode:passthrough"/></g><g><path d="M10.316787484375,17.7453984765625C9.965224484375,17.7453984765625,9.681396484375,17.4615684765625,9.681396484375,17.1100084765625C9.681396484375,15.4565684765625,10.179443484375,14.1729884765625,11.162726484375,13.2940884765625C12.775886484375,11.8512154765625,15.083016484375001,12.0910978765625,15.180066484375,12.1020745765625C15.527956484375,12.1405315765625,15.780656484375001,12.4554724765625,15.740366484375,12.8051994765625C15.701926484375,13.1531084765625,15.388796484375,13.4039484765625,15.039076484375,13.3673284765625C15.020756484375,13.3654884765625,13.186046484375,13.1842184765625,12.003176484375,14.2499084765625C11.305556484375,14.877958476562501,10.952156484375,15.841078476562501,10.952156484375,17.113678476562498C10.953996484375,17.4615684765625,10.668349484375,17.7453984765625,10.316787484375,17.7453984765625Z" fill="#30C29E" fill-opacity="1" style="mix-blend-mode:passthrough"/></g><g><path d="M10.316787484375,14.1583453125C9.965224484375,14.1583453125,9.681396484375,13.8745453125,9.681396484375,13.5229453125L9.681396484375,4.1168163125C9.681396484375,3.7652543124999998,9.965224484375,3.4814453125,10.316787484375,3.4814453125C10.668349484375,3.4814453125,10.952156484375,3.7652543124999998,10.952156484375,4.1168163125L10.952156484375,13.5229453125C10.953996484375,13.8726453125,10.668349484375,14.1583453125,10.316787484375,14.1583453125Z" fill="#30C29E" fill-opacity="1" style="mix-blend-mode:passthrough"/></g><g><path d="M8.5186767578125,4.2468370703125L9.9139567578125,1.9909810703125C10.0988967578125,1.6906688703125,10.5346767578125,1.6906688703125,10.7196167578125,1.9909810703125L12.1148767578125,4.2468370703125C12.3108067578125,4.5617870703125,12.0837567578125,4.9700870703125,11.7120367578125,4.9700870703125L8.9233467578125,4.9700870703125C8.551646757812499,4.9700870703125,8.3245967578125,4.5635970703125,8.5186767578125,4.2468370703125ZM4.9060067578125,10.0640670703125L2.6501467578125,8.6688170703125C2.3498535578125,8.4838770703125,2.3498535578125,8.0480670703125,2.6501467578125,7.8631470703125L4.9060067578125,6.4660570703125C5.2209467578125,6.2701170703125,5.629286757812499,6.4971770703125,5.629286757812499,6.8688870703125L5.629286757812499,9.6594170703125C5.629286757812499,10.0310970703125,5.2209667578125,10.2581670703125,4.9060067578125,10.0640670703125ZM15.0940267578125,14.5300470703125L17.3498267578125,13.1347470703125C17.6501267578125,12.9498470703125,17.6501267578125,12.5140470703125,17.3498267578125,12.3290470703125L15.0940267578125,10.9338170703125C14.7790267578125,10.7379170703125,14.3707267578125,10.9649470703125,14.3707267578125,11.3366470703125L14.3707267578125,14.1271470703125C14.3707267578125,14.4988470703125,14.7790267578125,14.7259470703125,15.0940267578125,14.5300470703125Z" fill="#30C29E" fill-opacity="1" style="mix-blend-mode:passthrough"/></g></g></svg>