<svg xmlns="http://www.w3.org/2000/svg" xmlns:xlink="http://www.w3.org/1999/xlink" fill="none" version="1.1" width="20" height="20" viewBox="0 0 20 20"><defs><clipPath id="master_svg0_94_2680"><rect x="0" y="0" width="20" height="20" rx="0"/></clipPath></defs><g clip-path="url(#master_svg0_94_2680)"><g><path d="M17.24086117591858,13.005957551193237C15.10986117591858,18.199557551193237,8.381651175918579,19.554757551193237,4.406141175918579,15.591257551193237C3.685631175918579,14.871157551193237,3.110841175918579,14.018757551193238,2.7132821759185792,13.080857551193237C0.5288611759185791,7.909497551193238,4.307251175918579,2.1797983511932375,9.920951175918578,2.1508680751932374C15.534661175918579,2.1219371511932374,19.37186117591858,7.812387551193237,17.24086117591858,13.005957551193237ZM10.00554117591858,3.3985875511932373C6.356121175918579,3.396867551193237,3.396761175918579,6.354827551193237,3.396761175918579,10.004257551193238C3.400851175918579,13.647157551193237,6.350251175918579,16.600757551193237,9.99313117591858,16.609957551193236C13.64256117591858,16.61505755119324,16.60466117591858,13.659857551193237,16.60816117591858,10.010467551193237C16.61156117591858,6.361047551193237,13.65496117591858,3.4002975511932374,10.00554117591858,3.3985875511932373ZM7.000001175918579,11.999997551193237L7.000001175918579,7.999997551193237Q7.000001175918579,7.901507551193237,7.019211175918579,7.804907551193237Q7.038431175918579,7.708307551193237,7.076121175918579,7.617317551193238Q7.113811175918579,7.526317551193237,7.168531175918579,7.444427551193237Q7.223251175918579,7.362537551193237,7.292891175918579,7.292897551193238Q7.3625411759185795,7.2232475511932375,7.444431175918579,7.168527551193237Q7.5263211759185795,7.113807551193237,7.617311175918579,7.076117551193238Q7.708311175918579,7.038427551193237,7.804911175918579,7.019217551193237Q7.901511175918579,6.999997551193237,8.00000117591858,6.999997551193237L12.000001175918579,6.999997551193237Q12.09846117591858,6.999997551193237,12.195061175918578,7.019217551193237Q12.291661175918579,7.038427551193237,12.38266117591858,7.076117551193238Q12.47366117591858,7.113807551193237,12.555561175918578,7.168527551193237Q12.63746117591858,7.2232475511932375,12.707061175918579,7.292897551193238Q12.77676117591858,7.362537551193237,12.831461175918578,7.444427551193237Q12.886161175918579,7.526317551193237,12.92386117591858,7.617317551193238Q12.961561175918579,7.708307551193237,12.980761175918579,7.804907551193237Q12.999961175918578,7.901507551193237,12.999961175918578,7.999997551193237L12.999961175918578,11.999997551193237Q12.999961175918578,12.098487551193237,12.980761175918579,12.195057551193237Q12.961561175918579,12.291657551193238,12.92386117591858,12.382657551193237Q12.886161175918579,12.473657551193238,12.831461175918578,12.555557551193237Q12.77676117591858,12.637457551193238,12.707061175918579,12.707057551193238Q12.63746117591858,12.776757551193237,12.555561175918578,12.831457551193237Q12.47366117591858,12.886157551193238,12.38266117591858,12.923857551193237Q12.291661175918579,12.961557551193238,12.195061175918578,12.980757551193237Q12.09846117591858,12.999957551193237,12.000001175918579,12.999957551193237L8.00000117591858,12.999957551193237Q7.901511175918579,12.999957551193237,7.804911175918579,12.980757551193237Q7.708311175918579,12.961557551193238,7.617311175918579,12.923857551193237Q7.5263211759185795,12.886157551193238,7.444431175918579,12.831457551193237Q7.3625411759185795,12.776757551193237,7.292891175918579,12.707057551193238Q7.223251175918579,12.637457551193238,7.168531175918579,12.555557551193237Q7.113811175918579,12.473657551193238,7.076121175918579,12.382657551193237Q7.038431175918579,12.291657551193238,7.019211175918579,12.195057551193237Q7.000001175918579,12.098487551193237,7.000001175918579,11.999997551193237ZM11.80000117591858,11.799997551193238L8.20000117591858,11.799997551193238L8.20000117591858,8.199997551193238L11.80000117591858,8.199997551193238L11.80000117591858,11.799997551193238Z" fill-rule="evenodd" fill="#F05761" fill-opacity="1" style="mix-blend-mode:passthrough"/><path d="M17.379661175918578,13.062857551193238Q16.58686117591858,14.995057551193238,14.989261175918578,16.27535755119324Q13.47196117591858,17.49135755119324,11.54482117591858,17.879557551193237Q9.61761117591858,18.267757551193238,7.747891175918579,17.733957551193235Q5.779231175918579,17.171957551193238,4.300231175918579,15.697457551193237Q3.188521175918579,14.586357551193238,2.5751771759185793,13.139357551193237Q1.7624521759185792,11.215347551193238,1.979344175918579,9.179537551193238Q2.185337175918579,7.246047551193238,3.2676011759185792,5.604867551193237Q4.349861175918579,3.963687551193237,6.045931175918579,3.0128175511932374Q7.8317611759185795,2.011630551193237,9.920171175918579,2.0008675511932372Q12.008591175918578,1.9901075511932373,13.804661175918579,2.9728345511932375Q15.510461175918579,3.9061775511932373,16.60956117591858,5.536107551193237Q17.70866117591858,7.166057551193237,17.93456117591858,9.097317551193237Q18.172461175918578,11.130807551193238,17.379661175918578,13.062857551193238L17.379661175918578,13.062857551193238ZM17.10216117591858,12.949057551193237Q17.86546117591858,11.088657551193238,17.63656117591858,9.132167551193238Q17.41916117591858,7.273327551193237,16.36086117591858,5.703837551193237Q15.302461175918578,4.134357551193237,13.660661175918579,3.236017551193237Q11.932611175918579,2.2905025511932373,9.921721175918579,2.3008635511932374Q7.910831175918579,2.3112265511932373,6.192641175918579,3.274497551193237Q4.560161175918579,4.189717551193237,3.518041175918579,5.7700275511932375Q2.475925175918579,7.350327551193237,2.277656175918579,9.211327551193238Q2.068977575918579,11.170027551193238,2.8513881759185793,13.022257551193237Q3.441931175918579,14.415457551193237,4.512051175918579,15.485057551193238Q5.936131175918579,16.90485755119324,7.830241175918579,17.44555755119324Q9.62986117591858,17.95925755119324,11.485581175918579,17.585457551193237Q13.341261175918579,17.211657551193237,14.801661175918579,16.041257551193237Q16.338761175918577,14.809457551193237,17.10216117591858,12.949057551193237L17.10216117591858,12.949057551193237ZM10.00547117591858,3.548587551193237Q7.330551175918579,3.5473275511932374,5.438661175918579,5.4383375511932375Q3.5467611759185793,7.3293375511932375,3.5467611759185793,10.004257551193238Q3.5497611759185794,12.674257551193238,5.436541175918579,14.563757551193238Q7.323321175918579,16.453157551193236,9.993511175918579,16.459957551193238Q12.668261175918579,16.46375755119324,14.56196117591858,14.574457551193237Q16.45566117591858,12.685257551193237,16.45816117591858,10.010327551193237Q16.46066117591858,7.335397551193237,14.570561175918579,5.442627551193237Q12.680361175918579,3.5498375511932374,10.00547117591858,3.548587551193237L10.00547117591858,3.548587551193237ZM10.00561117591858,3.2485875511932374Q12.80486117591858,3.249907551193237,14.78276117591858,5.230647551193237Q16.76076117591858,7.211377551193237,16.75816117591858,10.010617551193238Q16.75546117591858,12.809857551193238,14.77376117591858,14.786857551193238Q12.79216117591858,16.763857551193237,9.99275117591858,16.75995755119324Q7.198611175918579,16.752857551193237,5.2242611759185795,14.775757551193237Q3.249901175918579,12.798557551193237,3.246761175918579,10.004257551193238Q3.246761175918579,7.205027551193237,5.226581175918579,5.226147551193238Q7.206401175918579,3.2472675511932376,10.00561117591858,3.2485875511932374L10.00561117591858,3.2485875511932374ZM6.850001175918579,11.999997551193237L6.850001175918579,7.999997551193237Q6.850001175918579,7.523657551193237,7.186831175918579,7.186827551193237Q7.523651175918579,6.849997551193237,8.00000117591858,6.849997551193237L12.000001175918579,6.849997551193237Q12.47636117591858,6.849997551193237,12.813161175918578,7.186827551193237Q13.149961175918579,7.523657551193237,13.149961175918579,7.999997551193237L13.149961175918579,11.999997551193237Q13.149961175918579,12.476357551193237,12.813161175918578,12.813157551193237Q12.47636117591858,13.149957551193237,12.000001175918579,13.149957551193237L8.00000117591858,13.149957551193237Q7.523651175918579,13.149957551193237,7.186831175918579,12.813157551193237Q6.850001175918579,12.476357551193237,6.850001175918579,11.999997551193237ZM7.150001175918579,11.999997551193237Q7.150001175918579,12.352057551193237,7.398961175918579,12.601057551193238Q7.6479211759185795,12.849957551193237,8.00000117591858,12.849957551193237L12.000001175918579,12.849957551193237Q12.352061175918578,12.849957551193237,12.601061175918579,12.601057551193238Q12.84996117591858,12.352057551193237,12.84996117591858,11.999997551193237L12.84996117591858,7.999997551193237Q12.84996117591858,7.647917551193237,12.601061175918579,7.398957551193237Q12.352061175918578,7.149997551193238,12.000001175918579,7.149997551193238L8.00000117591858,7.149997551193238Q7.6479211759185795,7.149997551193238,7.398961175918579,7.398957551193237Q7.150001175918579,7.647917551193237,7.150001175918579,7.999997551193237L7.150001175918579,11.999997551193237ZM11.80000117591858,11.949997551193237L8.05000117591858,11.949997551193237L8.05000117591858,8.049997551193236L11.95000117591858,8.049997551193236L11.95000117591858,11.949997551193237L11.80000117591858,11.949997551193237ZM11.80000117591858,11.649997551193238L11.80000117591858,11.799997551193238L11.650001175918579,11.799997551193238L11.650001175918579,8.199997551193238L11.80000117591858,8.199997551193238L11.80000117591858,8.349997551193237L8.20000117591858,8.349997551193237L8.20000117591858,8.199997551193238L8.350001175918578,8.199997551193238L8.350001175918578,11.799997551193238L8.20000117591858,11.799997551193238L8.20000117591858,11.649997551193238L11.80000117591858,11.649997551193238Z" fill="#F05761" fill-opacity="1"/></g></g></svg>