<svg xmlns="http://www.w3.org/2000/svg" xmlns:xlink="http://www.w3.org/1999/xlink" fill="none" version="1.1" width="20" height="20" viewBox="0 0 20 20"><defs><clipPath id="master_svg0_94_1854"><rect x="0" y="0" width="20" height="20" rx="0"/></clipPath></defs><g clip-path="url(#master_svg0_94_1854)"><g><path d="M16.31798046875,9.26525328125C16.67388046875,9.265303281249999,16.97338046875,9.53167328125,17.01508046875,9.88512328125L17.01998046875,9.967253281249999L17.01998046875,12.07325328125C17.020080468750002,13.18842328125,16.15078046875,14.11036328125,15.03758046875,14.17576328125L14.91398046875,14.17926328125L5.72059046875,14.17926328125L6.74410046875,15.04836328125C7.02789046875,15.28786328125,7.07601046875,15.70696328125,6.85391046875,16.00466328125C6.63180046875,16.30226328125,6.21632046875,16.37536328125,5.905920468750001,16.171563281250002L5.83572046875,16.11816328125L3.22778646875,13.90476328125L3.18847446875,13.86896328125L3.13652646875,13.81136328125L3.14775846875,13.82546328125C3.12394546875,13.79746328125,3.10235246875,13.76766328125,3.08317446875,13.73626328125L3.04526646875,13.66606328125L3.01578246875,13.59166328125L2.99542446875,13.51656328125L2.98278851875,13.43096328125L2.97998046875,13.37056328125L2.98489448875,13.28631328125L3.00033846875,13.20207328125L3.02210046875,13.12906328125L3.04807446875,13.06729328125L3.08247246875,13.00411328125L3.11336046875,12.95778328125L3.16250046875,12.89670328125L3.22638246875,12.83563328125L5.82870046875,10.61731328125C6.110720468749999,10.37798328125,6.53007046875,10.398553281249999,6.78732046875,10.66433328125C7.04457046875,10.93011328125,7.05146046875,11.34990328125,6.8030704687500005,11.62398328125L6.73989046875,11.68505328125L5.4608504687499995,12.77525328125L14.91398046875,12.77525328125C15.26988046875,12.77521328125,15.56938046875,12.50884328125,15.61108046875,12.15539328125L15.61598046875,12.07325328125L15.61598046875,9.967253281249999C15.61598046875,9.57955328125,15.93028046875,9.26525328125,16.31798046875,9.26525328125ZM17.00948046875,6.22559328125L16.99538046875,6.29158328125L16.96808046875,6.37091328125L16.94698046875,6.42005328125L16.90348046875,6.493763281250001L16.847980468750002,6.566773281250001L16.82128046875,6.59625328125L16.81358046875,6.6018732812500005L16.80798046875,6.608893281249999L16.77848046875,6.63697328125L14.11438046875,8.76122328125C13.82468046875,8.99388328125,13.40388046875,8.96048328125,13.15448046875,8.68503328125C12.90507046875,8.40958328125,12.91351046875,7.98751328125,13.17368046875,7.72226328125L13.23898046875,7.66329328125L14.31028046875,6.80825328125L5.08598046875,6.80825328125C4.73008046875,6.80830328125,4.43053046875,7.07467328125,4.3888904687500006,7.42812328125L4.38398046875,7.51025328125L4.38398046875,9.61625328125C4.3835704687499994,9.98768328125,4.09391046875,10.29450328125,3.72312146875,10.31627328125C3.3523354687499998,10.33804328125,3.02876276875,10.06721328125,2.98489448875,9.69839328125L2.97998046875,9.61625328125L2.97998046875,7.51025328125C2.97991820715,6.39509328125,3.84918146875,5.4731932812499995,4.96243046875,5.40776328125L5.08598046875,5.40425328125L14.31168046875,5.40425328125L13.23898046875,4.54922328125C12.94834046875,4.3184432812499995,12.88753046875,3.90129628125,13.10018046875,3.59714328125C13.31288046875,3.29299078125,13.72558046875,3.20694078125,14.04208046875,3.40074928125L14.11438046875,3.45129228125L16.77848046875,5.57624328125L16.80448046875,5.60011328125L16.86698046875,5.66891328125L16.89568046875,5.707523281249999L16.94278046875,5.78614328125L16.96808046875,5.84160328125L16.994680468749998,5.92093328125L17.00878046875,5.98270328125C17.014380468749998,6.01078328125,17.01718046875,6.04027328125,17.01928046875,6.0690532812499995L17.01928046875,6.14346328125C17.01718046875,6.17154328125,17.014380468749998,6.19892328125,17.00948046875,6.22630328125L17.00948046875,6.22559328125Z" fill="#35A7EE" fill-opacity="1" style="mix-blend-mode:passthrough"/></g></g></svg>