<svg xmlns="http://www.w3.org/2000/svg" xmlns:xlink="http://www.w3.org/1999/xlink" fill="none" version="1.1" width="20" height="20" viewBox="0 0 20 20"><defs><clipPath id="master_svg0_94_1842"><rect x="0" y="0" width="20" height="20" rx="0"/></clipPath></defs><g clip-path="url(#master_svg0_94_1842)"><g><path d="M10.0001220703125,2.781250625849C11.1822520703125,2.780478954,12.1854020703125,3.6483119999999998,12.3547420703125,4.81825C15.2691720703125,5.96255,16.934272070312502,9.04111,16.2968720703125,12.10656C16.8789720703125,12.55564,17.219572070312502,13.24955,17.2188720703125,13.98475C17.218172070312498,15.29755,16.1533720703125,16.361150000000002,14.8405720703125,16.36035C14.4206720703125,16.36035,14.0261720703125,16.25075,13.6836720703125,16.06045C12.6042920703125,16.81645,11.3179120703125,17.220950000000002,10.0001220703125,17.21875C8.6822620703125,17.220750000000002,7.3958020703125,16.81655,6.3159320703125,16.061149999999998C5.9746820703125,16.25145,5.5796220703124995,16.35975,5.1596220703124995,16.35975C3.8468720703125,16.36045,2.7820955513125,15.29685,2.7813720703125,13.98405C2.7813720703125,13.22025,3.1423100703125,12.54034,3.7040600703125,12.10591C3.6148090703125,11.57041,3.5695280703125,11.13334,3.5695280703125,10.79669C3.5702670703125,8.155339999999999,5.1875320703125,5.78359,7.6461520703125,4.81825C7.8151920703125,3.648413,8.818132070312501,2.780522138,10.0001220703125,2.781250625849ZM12.1559020703125,6.15897C11.7378720703125,7.01734,10.9319920703125,7.53184,10.0001220703125,7.53184C9.0759120703125,7.53236,8.235042070312499,6.99754,7.8436820703125,6.16028C6.0381320703125,6.9975,4.8825920703125,8.80648,4.8820320703124995,10.79669Q4.8669320703125,11.11431,4.9476520703125,11.61962C6.4498120703125,11.51069,7.5378720703125,12.67291,7.5378720703125,13.98475C7.5384320703125,14.37765,7.4409920703125,14.76445,7.2543720703125,15.11025C8.074572070312499,15.63315,9.0274220703125,15.91005,10.0001220703125,15.90825C10.9904020703125,15.90825,11.9360620703125,15.62665,12.7465320703125,15.11085C12.5594520703125,14.76505,12.4617720703125,14.37795,12.4623720703125,13.98475C12.4623720703125,12.67225,13.5727720703125,11.48772,15.0512720703125,11.61963Q15.1181720703125,11.07494,15.1181720703125,10.79669C15.1176720703125,8.80595,13.9618720703125,6.99645,12.1559020703125,6.15897ZM14.8405720703125,12.92035C14.2523720703125,12.92065,13.7758720703125,13.39785,13.7761720703125,13.98605C13.7765720703125,14.57425,14.2536720703125,15.05085,14.8419720703125,15.05045C15.4301720703125,15.05015,15.9067720703125,14.57295,15.9063720703125,13.98475C15.9063720703125,13.39675,15.4292720703125,12.92035,14.8405720703125,12.92035ZM5.1596220703124995,12.92035C4.5713820703125005,12.92065,4.0948220703125,13.39785,4.0951820703125,13.98605C4.0955420703125,14.57425,4.5727020703125,15.05085,5.1609320703125,15.05045C5.7491720703125,15.05015,6.2257320703125,14.57295,6.2253720703125,13.98475C6.2253720703125,13.39675,5.7482820703125,12.92035,5.1596220703124995,12.92035ZM10.0001220703125,4.09178C9.4118920703125,4.0921400000000006,8.9353220703125,4.5693,8.935682070312499,5.1575299999999995C8.936052070312499,5.74577,9.4132020703125,6.2223299999999995,10.0014320703125,6.22197C10.5896720703125,6.22161,11.0662320703125,5.7444500000000005,11.0658720703125,5.156219999999999C11.0658720703125,4.56888,10.5887820703125,4.09178,10.0001220703125,4.09178Z" fill="#EB973B" fill-opacity="1" style="mix-blend-mode:passthrough"/><path d="M7.5048520703125,4.7051300000000005Q5.6739720703125,5.45073,4.5560120703125,7.09024Q3.4125960703125,8.76707,3.4120280703125,10.79669Q3.4120280703125,11.28273,3.5337340703124998,12.04035Q2.6238720703125,12.78975,2.6238720703125,13.98415Q2.6244500703125,15.03395,3.3671800703125,15.77585Q4.1099020703125,16.51785,5.1596220703124995,16.51725Q5.7712420703125,16.51725,6.3054320703125,16.245150000000002Q7.9742220703125,17.379350000000002,9.9998520703125,17.37625Q12.0260920703125,17.379649999999998,13.6942720703125,16.24445Q14.2321720703125,16.51785,14.8405720703125,16.51785Q15.8903720703125,16.51845,16.6330720703125,15.77655Q17.3757720703125,15.03465,17.3763720703125,13.98495Q17.3775720703125,12.79115,16.4701720703125,12.04337Q16.917772070312502,9.740359999999999,15.7962720703125,7.66704Q14.6731720703125,5.5906400000000005,12.4960120703125,4.7051Q12.3403020703125,3.82992,11.6602720703125,3.241621Q10.9453520703125,2.623134,10.0002220703125,2.623751Q9.054992070312501,2.623168,8.3402220703125,3.24169Q7.6603520703125,3.83002,7.5048520703125,4.7051300000000005ZM7.7889420703125,4.93139L7.8020320703125,4.84077Q7.9204120703125,4.02154,8.5463420703125,3.4798869999999997Q9.1722720703125,2.938241,10.0000220703125,2.938751Q10.8280920703125,2.9382099999999998,11.4541820703125,3.479847Q12.0802820703125,4.02149,12.1988720703125,4.840809999999999L12.2119820703125,4.9314L12.2971820703125,4.96486Q14.4294720703125,5.80204,15.5192720703125,7.8169Q16.6090720703125,9.831769999999999,16.1426720703125,12.0745L16.1225720703125,12.17104L16.2006720703125,12.23127Q17.062472070312502,12.89615,17.0613720703125,13.98455Q17.0608720703125,14.90395,16.4104720703125,15.55365Q15.7600720703125,16.20335,14.8406720703125,16.202849999999998Q14.2642720703125,16.202849999999998,13.7601720703125,15.92275L13.6739720703125,15.87495L13.5932720703125,15.93145Q11.9755220703125,17.06465,10.0003920703125,17.06125Q8.0247020703125,17.06425,6.4062120703125,15.93205L6.3253820703125,15.87555L6.2392220703125005,15.92355Q5.7395620703125,16.20225,5.1596220703124995,16.20225Q4.2402120703125,16.20275,3.5897960703125,15.55305Q2.9393790703125,14.90335,2.9388720703125,13.98405Q2.9388720703125,12.89675,3.8004120703125,12.2305L3.8748920703125,12.17289L3.8594120703125,12.08002Q3.7270290703124997,11.28569,3.7270280703125,10.79669Q3.7275690703124997,8.86428,4.8162620703125,7.2677Q5.9049620703125,5.6711100000000005,7.7037120703125,4.96485L7.7889420703125,4.93139ZM10.8658120703125,6.020849999999999Q11.2236520703125,5.6625700000000005,11.2233720703125,5.156219999999999L11.2233720703125,5.15612Q11.2233320703125,4.6503,10.8650620703125,4.29233Q10.5067120703125,3.93428,10.0001220703125,3.93428Q9.493612070312501,3.93459,9.1357420703125,4.2928999999999995Q8.777872070312501,4.65121,8.7781820703125,5.15763Q8.7785020703125,5.66404,9.1368020703125,6.02191Q9.4951120703125,6.37978,10.0015320703125,6.3794699999999995Q10.5079520703125,6.379160000000001,10.8658120703125,6.020849999999999ZM10.642422070312499,4.51516Q10.9083720703125,4.78089,10.9083720703125,5.156219999999999L10.9083720703125,5.15632Q10.9086020703125,5.5322499999999994,10.6429420703125,5.7982499999999995Q10.3772720703125,6.06424,10.0013320703125,6.06447Q9.6254020703125,6.0647,9.3594120703125,5.79904Q9.0934220703125,5.53337,9.093182070312501,5.15743Q9.0929520703125,4.781499999999999,9.3586120703125,4.51551Q9.6242820703125,4.24951,10.0001220703125,4.24928Q10.376312070312501,4.24928,10.642422070312499,4.51516ZM15.2075720703125,11.63884Q15.2756720703125,11.08459,15.2756720703125,10.79669L15.2756720703125,10.79665Q15.2753720703125,9.25761,14.4468720703125,7.96057Q13.6183720703125,6.663539999999999,12.2221620703125,6.0160800000000005L12.0819620703125,5.95107L12.0143020703125,6.0900099999999995Q11.3888320703125,7.37434,10.0001220703125,7.37434Q9.352762070312501,7.37471,8.8066120703125,7.02734Q8.2604520703125,6.6799599999999995,7.9863720703125,6.09359L7.9198820703125,5.95134L7.7774320703125,6.0174Q6.3815520703125,6.66465,5.5532520703124995,7.96133Q4.7259520703125,9.256450000000001,4.7245320703125,10.79298Q4.7093120703124995,11.12602,4.7921220703125,11.64447L4.8149220703125,11.78716L4.9590420703125,11.77671Q5.9870120703125,11.70216,6.6970620703125,12.38307Q7.3803720703125,13.03835,7.3803720703125,13.98475Q7.3811620703125,14.54375,7.1157720703125,15.03545L7.0462120703125,15.16425L7.1697020703125,15.24305Q8.4646520703125,16.068550000000002,10.0004120703125,16.06575Q11.5395720703125,16.06575,12.8310720703125,15.24375L12.9548720703125,15.16495L12.8850720703125,15.03595Q12.6190220703125,14.54415,12.6198720703125,13.98495Q12.6198720703125,13.03775,13.3114720703125,12.37418Q14.0280720703125,11.68647,15.0372720703125,11.7765L15.1890720703125,11.79004L15.2075720703125,11.63884ZM14.9606720703125,10.79669L14.9606720703125,10.79673Q14.9606720703125,11.02697,14.9123720703125,11.45297Q13.8584720703125,11.41271,13.0933720703125,12.14689Q12.3048720703125,12.90345,12.3048720703125,13.98455Q12.3040020703125,14.54865,12.5408320703125,15.05285Q11.3759420703125,15.75075,9.9998220703125,15.75075Q8.6276020703125,15.75325,7.4599120703125,15.05225Q7.6961720703125,14.54825,7.6953720703125,13.98475Q7.6953720703125,12.90395,6.9150820703125,12.15572Q6.1551320703125,11.42696,5.0822420703125,11.45528Q5.027132070312501,11.06133,5.0393520703125,10.80416L5.0395320703125,10.80045L5.0395320703125,10.79673Q5.039942070312501,9.35006,5.8187220703125,8.1309Q6.5563320703125,6.97618,7.7726620703125,6.36922Q8.0816920703125,6.93958,8.6375520703125,7.29313Q9.261162070312501,7.68976,10.0001220703125,7.68934Q10.7445720703125,7.68934,11.3553520703125,7.30012Q11.9010020703125,6.95239,12.2252020703125,6.36706Q13.4430720703125,6.97426,14.1813720703125,8.13014Q14.9603720703125,9.34965,14.9606720703125,10.79669ZM6.0253120703125,14.84935Q6.3831520703125,14.49115,6.3828720703125,13.98475L6.3828720703125,13.98465Q6.382832070312499,13.47845,6.0245420703125,13.12055Q5.666302070312501,12.76281,5.1596220703124995,12.76281Q4.6531120703125,12.76312,4.2952420703125,13.12145Q3.9373720703124997,13.47975,3.9376820703125,13.98615Q3.9379920703125,14.49255,4.2963020703125,14.85045Q4.6546220703125005,15.20835,5.161032070312499,15.20795Q5.6674420703125,15.20765,6.0253120703125,14.84935ZM16.0638720703125,13.98475L16.0638720703125,13.98465Q16.0638720703125,13.47845,15.7055720703125,13.12055Q15.3472720703125,12.76281,14.8406720703125,12.76281Q14.3340720703125,12.76312,13.9762720703125,13.12145Q13.6183720703125,13.47975,13.6186720703125,13.98615Q13.6189720703125,14.49255,13.9772720703125,14.85045Q14.3355720703125,15.20835,14.8420720703125,15.20795Q15.3484720703125,15.20765,15.7062720703125,14.84935Q16.0641720703125,14.49115,16.0638720703125,13.98475ZM5.8019420703125,13.34345Q6.0678720703125,13.60905,6.0678720703125,13.98475L6.0678720703125,13.98485Q6.0681020703125,14.36075,5.8024420703125,14.62675Q5.5367720703125,14.89275,5.1608420703124995,14.89295Q4.7849020703125,14.89325,4.5189120703125,14.62755Q4.2529120703125,14.36195,4.2526820703125,13.98595Q4.2524520703125,13.61005,4.5181120703125,13.34405Q4.783782070312499,13.07805,5.1596220703124995,13.07785Q5.5359420703125,13.07785,5.8019420703125,13.34345ZM15.4829720703125,13.34345Q15.7488720703125,13.60905,15.7488720703125,13.98475L15.7488720703125,13.98485Q15.7490720703125,14.36075,15.4834720703125,14.62675Q15.2177720703125,14.89275,14.8418720703125,14.89295Q14.4658720703125,14.89325,14.1998720703125,14.62755Q13.9338720703125,14.36195,13.9336720703125,13.98595Q13.9334720703125,13.61005,14.1990720703125,13.34405Q14.4647720703125,13.07805,14.8406720703125,13.07785Q15.2169720703125,13.07785,15.4829720703125,13.34345Z" fill-rule="evenodd" fill="#EB973B" fill-opacity="1"/></g></g></svg>