<svg xmlns="http://www.w3.org/2000/svg" xmlns:xlink="http://www.w3.org/1999/xlink" fill="none" version="1.1" width="20" height="20" viewBox="0 0 20 20"><defs><clipPath id="master_svg0_94_1866"><rect x="0" y="0" width="20" height="20" rx="0"/></clipPath></defs><g clip-path="url(#master_svg0_94_1866)"><g><path d="M16.53590078125,17.40055458984375L3.46543378125,17.40055458984375C3.10680778125,17.39145458984375,2.82080078125,17.09815458984375,2.82080078125,16.73935458984375C2.8208008363843,16.38065458984375,3.10680778125,16.08735458984375,3.46543378125,16.078254589843752L16.53430078125,16.078254589843752C16.89290078125,16.08685458984375,17.17930078125,16.379854589843752,17.17980078125,16.73855458984375C17.18020078125,17.09725458984375,16.89460078125,17.39095458984375,16.53590078125,17.40055458984375ZM7.60055078125,14.82535458984375C7.47949078125,14.96525458984375,7.30399078125,15.04635458984375,7.11892078125,15.04775458984375L3.69927378125,15.04775458984375C3.33595478125,15.04585458984375,3.04300578125,14.74975458984375,3.04511378125,14.38635458984375L3.04511378125,10.95532458984375C3.03313678125,10.76986458984375,3.10045778125,10.588034589843751,3.23032578125,10.45508458984375L10.67261078125,2.93203858984375C10.67519078125,2.93044758984375,10.67736078125,2.92827558984375,10.67895078125,2.92569658984375C11.07978078125,2.51755548984375,11.72981078125,2.49415458984375,12.15895078125,2.87241658984375L15.02080078125,5.7656045898437505C15.02250078125,5.76814458984375,15.02460078125,5.77031458984375,15.02720078125,5.77194458984375C15.42080078125,6.17360458984375,15.45170078125,6.80624458984375,15.09910078125,7.24433458984375L7.60055078125,14.82535458984375ZM11.69889078125,4.27545458984375C11.54163078125,4.15290458984375,11.31895078125,4.16147458984375,11.17158078125,4.2957545898437495L4.35386078125,11.18832458984375L4.35386078125,13.72545458984375L6.84110078125,13.72545458984375L13.68550078125,6.80667458984375C13.81110078125,6.64629458984375,13.80460078125,6.419114589843749,13.66980078125,6.26626458984375L11.69889078125,4.27545458984375Z" fill="#A075F7" fill-opacity="1" style="mix-blend-mode:passthrough"/><path d="M7.71057078125,14.92735458984375L15.20570078125,7.34982458984375L15.21110078125,7.34436458984375L15.21590078125,7.33839458984375Q15.51620078125,6.96540458984375,15.49280078125,6.487164589843751Q15.46960078125,6.01190458984375,15.13850078125,5.67123458984375Q15.13640078125,5.66909458984375,15.13430078125,5.6669545898437494L15.12250078125,5.65492458984375L15.12200078125,5.654614589843749L12.26199078125,2.76328158984375L12.25814078125,2.75988958984375Q11.89144078125,2.43666658984375,11.40294078125,2.45425258984375Q10.91930078125,2.4716635898437502,10.57877078125,2.81368258984375L10.57860078125,2.81378658984375L3.12302478125,10.35027458984375Q2.87406548125,10.60513458984375,2.89511428125,10.95996458984375L2.89511678125,14.38555458984375Q2.89317488125,14.72015458984375,3.12851478125,14.95805458984375Q3.36385478125,15.19605458984375,3.69927378125,15.19775458984375L7.12005078125,15.19775458984375Q7.47649078125,15.19505458984375,7.71057078125,14.92735458984375ZM14.98690078125,7.14448458984375Q15.21080078125,6.86241458984375,15.19320078125,6.50179458984375Q15.17560078125,6.1418245898437505,14.92620078125,5.88320458984375Q14.91650078125,5.87480458984375,14.90820078125,5.865014589843749L12.05604078125,2.98167058984375Q11.78027078125,2.74086258984375,11.41373078125,2.75405858984375Q11.04904078125,2.76718658984375,10.79207078125,3.02464358984375Q10.783100781249999,3.03534458984375,10.77246078125,3.04438658984375L3.33762678125,10.55990458984375Q3.18029078125,10.72097458984375,3.19480278125,10.94566458984375L3.19511378125,10.95049458984375L3.19511178125,14.38725458984375Q3.19389078125,14.59755458984375,3.34180278125,14.74715458984375Q3.48971578125,14.89665458984375,3.69927378125,14.89775458984375L7.11779078125,14.89775458984375Q7.34105078125,14.89605458984375,7.48710078125,14.72715458984375L7.49038078125,14.72335458984375L14.98690078125,7.14448458984375ZM13.77950078125,6.16382458984375L13.77640078125,6.16073458984375L11.79870078125,4.16307458984375L11.79109078125,4.15714458984375Q11.41913078125,3.8672645898437503,11.07055078125,4.18487458984375L11.06768078125,4.18749458984375L4.20386078125,11.12667458984375L4.20386078125,13.87545458984375L6.90371078125,13.87545458984375L13.79820078125,6.90601458984375L13.80350078125,6.89919458984375Q14.09730078125,6.52432458984375,13.78230078125,6.16707458984375L13.77950078125,6.16382458984375ZM13.56000078125,6.36849458984375Q13.70340078125,6.5341645898437495,13.57230078125,6.70778458984375L6.7784907812499995,13.57545458984375L4.50386078125,13.57545458984375L4.50386078125,11.24997458984375L11.27529078125,4.40420458984375Q11.43232078125,4.26346458984375,11.59958078125,4.38835458984375L13.56000078125,6.36849458984375ZM17.10000078125,17.30505458984375Q17.33020078125,17.06845458984375,17.32980078125,16.738354589843752Q17.329300781249998,16.40825458984375,17.09860078125,16.17225458984375Q16.86780078125,15.93615458984375,16.53780078125,15.92825458984375L16.53610078125,15.92825458984375L3.46353878125,15.92825458984375L3.4616437812500003,15.92825458984375Q3.13167178125,15.93665458984375,2.90123448125,16.172954589843748Q2.67080078125,16.409254589843748,2.67080078125,16.73935458984375Q2.67080078125,17.06945458984375,2.9012345812499998,17.30575458984375Q3.13167078125,17.54215458984375,3.46164278125,17.55045458984375L3.46353778125,17.55055458984375L16.537900781250002,17.55055458984375L16.539900781249997,17.55045458984375Q16.86990078125,17.541754589843748,17.10000078125,17.30505458984375ZM16.884100781249998,16.38195458984375Q17.02950078125,16.530754589843752,17.02980078125,16.73875458984375Q17.03000078125,16.94675458984375,16.88500078125,17.09595458984375Q16.740600781250002,17.244354589843752,16.53390078125,17.250554589843752L3.46747878125,17.250554589843752Q3.26064978125,17.244654589843748,3.11603078125,17.09635458984375Q2.97080078125,16.94745458984375,2.97080078125,16.73935458984375Q2.97080078125,16.53135458984375,3.11603078125,16.38235458984375Q3.26064978125,16.23405458984375,3.4674767812500003,16.22825458984375L16.53230078125,16.22825458984375Q16.73920078125,16.23375458984375,16.884100781249998,16.38195458984375Z" fill-rule="evenodd" fill="#A075F7" fill-opacity="1"/></g></g></svg>