<svg xmlns="http://www.w3.org/2000/svg" xmlns:xlink="http://www.w3.org/1999/xlink" fill="none" version="1.1" width="20" height="20" viewBox="0 0 20 20"><defs><clipPath id="master_svg0_94_2351"><rect x="0" y="0" width="20" height="20" rx="0"/></clipPath></defs><g clip-path="url(#master_svg0_94_2351)"><g><path d="M17.240860937500003,13.0059568359375C15.1098609375,18.1995568359375,8.3816509375,19.5547568359375,4.4061409375,15.5912568359375C3.6856309375,14.8711568359375,3.1108409375,14.0187568359375,2.7132819375,13.0808568359375C0.5288609375,7.9094968359375,4.3072509375,2.1797976359375,9.920950937499999,2.1508673599375C15.5346609375,2.1219364359375,19.3718609375,7.8123868359375,17.240860937500003,13.0059568359375ZM10.005540937500001,3.3985868359375C6.3561209375,3.3968668359375,3.3967609375,6.3548268359375,3.3967609375,10.0042568359375C3.4008509375,13.6471568359375,6.3502509375,16.6007568359375,9.9931309375,16.6099568359375C13.6425609375,16.6150568359375,16.6046609375,13.6598568359375,16.6081609375,10.0104668359375C16.611560937500002,6.3610468359375,13.6549609375,3.4002968359375,10.005540937500001,3.3985868359375ZM8.7975109375,13.5389568359375C8.6132209375,13.5384568359375,8.4320009375,13.4917568359375,8.2704709375,13.4030568359375C7.8624109375,13.1648568359375,7.6151609375,12.7244568359375,7.6242409375,12.2520568359375L7.6242409375,7.7825068359375C7.6099909375,7.3058768359375,7.8571109375,6.8594868359375,8.2686109375,6.6185568359375C8.633350937500001,6.4232368359375,9.0761609375,6.4454468359375,9.4195309375,6.6762868359375L12.8424609375,8.9110868359375C13.2069609375,9.152846835937499,13.4237609375,9.5631968359375,13.4179609375,10.000546835937499C13.4229609375,10.4498268359375,13.1991609375,10.8708168359375,12.8238609375,11.1179468359375L9.4325609375,13.3527568359375C9.2433109375,13.4748568359375,9.0227409375,13.5395568359375,8.7975109375,13.5389568359375ZM8.9185609375,7.8774868359375L8.9185609375,12.1329068359375L12.1217609375,10.0210268359375C12.1227609375,10.0092568359375,12.1227609375,9.9974168359375,12.1217609375,9.9856468359375L12.1217609375,9.9707468359375L8.9185609375,7.8774868359375Z" fill-rule="evenodd" fill="#35BC62" fill-opacity="1" style="mix-blend-mode:passthrough"/><path d="M17.3796609375,13.0628568359375Q16.5868609375,14.9950568359375,14.9892609375,16.2753568359375Q13.4719609375,17.491356835937502,11.5448209375,17.8795568359375Q9.6176109375,18.2677568359375,7.7478909375,17.733956835937498Q5.7792309374999995,17.1719568359375,4.3002309375,15.6974568359375Q3.1885209375,14.5863568359375,2.5751769375,13.1393568359375Q1.7624519375,11.2153468359375,1.9793439375,9.179536835937501Q2.1853369375,7.2460468359375,3.2676009375,5.6048668359375Q4.3498609375,3.9636868359374997,6.0459309375,3.0128168359375Q7.8317609375,2.0116298359374998,9.9201709375,2.0008668359375Q12.0085909375,1.9901068359375,13.8046609375,2.9728338359375Q15.5104609375,3.9061768359375,16.6095609375,5.5361068359375Q17.7086609375,7.1660568359375,17.934560937500002,9.0973168359375Q18.1724609375,11.1308068359375,17.3796609375,13.0628568359375L17.3796609375,13.0628568359375ZM17.102160937500003,12.9490568359375Q17.8654609375,11.0886568359375,17.6365609375,9.1321668359375Q17.4191609375,7.2733268359375,16.3608609375,5.7038368359375Q15.3024609375,4.1343568359375,13.6606609375,3.2360168359375Q11.9326109375,2.2905018359375,9.9217209375,2.3008628359375Q7.9108309375,2.3112258359375,6.1926409375,3.2744968359374997Q4.5601609375,4.189716835937499,3.5180409375,5.7700268359375Q2.4759249375,7.3503268359375,2.2776559375,9.2113268359375Q2.0689773375,11.1700268359375,2.8513879375,13.0222568359375Q3.4419309375,14.4154568359375,4.5120509375,15.4850568359375Q5.9361309375,16.9048568359375,7.8302409375,17.445556835937502Q9.6298609375,17.959256835937502,11.4855809375,17.5854568359375Q13.3412609375,17.2116568359375,14.8016609375,16.0412568359375Q16.3387609375,14.8094568359375,17.102160937500003,12.9490568359375L17.102160937500003,12.9490568359375ZM10.0054709375,3.5485868359375Q7.3305509375,3.5473268359375,5.4386609375,5.4383368359375Q3.5467609375,7.3293368359375,3.5467609375,10.0042568359375Q3.5497609375000003,12.6742568359375,5.4365409375,14.5637568359375Q7.3233209375,16.4531568359375,9.9935109375,16.4599568359375Q12.6682609375,16.463756835937502,14.5619609375,14.5744568359375Q16.4556609375,12.6852568359375,16.4581609375,10.0103268359375Q16.460660937500002,7.3353968359375,14.5705609375,5.442626835937499Q12.6803609375,3.5498368359375,10.0054709375,3.5485868359375L10.0054709375,3.5485868359375ZM10.0056109375,3.2485868359375Q12.8048609375,3.2499068359375,14.7827609375,5.2306468359375Q16.760760937500002,7.2113768359375,16.7581609375,10.010616835937501Q16.7554609375,12.8098568359375,14.7737609375,14.7868568359375Q12.7921609375,16.7638568359375,9.9927509375,16.7599568359375Q7.1986109375,16.7528568359375,5.2242609375,14.7757568359375Q3.2499009375,12.7985568359375,3.2467609375,10.0042568359375Q3.2467609375,7.2050268359375,5.2265809375,5.2261468359375005Q7.2064009375,3.2472668359375003,10.0056109375,3.2485868359375L10.0056109375,3.2485868359375ZM8.7971209375,13.6889568359375Q8.4779809375,13.6881568359375,8.1982509375,13.5344568359375L8.1965409375,13.5335568359375L8.1948509375,13.5325568359375Q7.4578809375,13.1023568359375,7.4742709375,12.2492568359375L7.4742409375,7.7825068359375L7.6242409375,7.7825068359375L7.4743109375,7.7869968359375Q7.4485209375,6.9248968359375,8.192820937499999,6.4891068359375L8.1952809375,6.4876668359375L8.1978009375,6.4863168359375Q8.8702109375,6.126246835937501,9.5032209375,6.5518068359375L12.9244609375,8.785486835937501Q13.5782609375,9.2191268359375,13.5679609375,10.0025268359375L13.4179609375,10.000546835937499L13.5679609375,9.9988768359375Q13.5768609375,10.8016568359375,12.9063609375,11.2432168359375L9.5151009375,13.4779568359375Q9.186620937499999,13.6899568359375,8.7971309375,13.6889568359375L8.7971209375,13.6889568359375ZM8.7978909375,13.3889568359375Q9.0985809375,13.3897568359375,9.3500309375,13.2274568359375L12.7413609375,10.9926668359375Q13.2750609375,10.6411968359375,13.2679609375,10.0022068359375L13.2679609375,10.000386835937501L13.2679609375,9.9985568359375Q13.2761609375,9.3787168359375,12.7604609375,9.0366868359375L9.3358409375,6.8007668359375Q8.852670937500001,6.4759468359375,8.3394209375,6.7507868359375L8.2686109375,6.6185568359375L8.3444009375,6.7479968359375Q7.7537109375,7.0938468359375,7.7741709375,7.7780268359375L7.7742409375,7.7802668359375L7.7742109375,12.2549568359375Q7.7612009375,12.9320568359375,8.3460909375,13.2734568359375L8.2704709375,13.4030568359375L8.342680937499999,13.2715568359375Q8.5553109375,13.3883568359375,8.7979009375,13.3889568359375L8.7978909375,13.3889568359375ZM9.0685609375,7.8774868359375L9.0685609375,12.1329068359375L8.9185609375,12.1329068359375L8.8360009375,12.0076768359375L12.0392009375,9.8957968359375L12.1217609375,10.0210268359375L11.9723409375,10.0079668359375Q11.9727409375,10.0033368359375,11.9723409375,9.9987068359375L11.9717709375,9.992186835937499L11.9717709375,9.9707468359375L12.1217609375,9.9707468359375L12.0397109375,10.0963168359375L8.8365009375,8.0030568359375L8.9185609375,7.8774868359375L9.0685609375,7.8774868359375ZM8.7685609375,7.6002768359375L12.2717609375,9.8895868359375L12.2717609375,9.9856468359375L12.1217609375,9.9856468359375L12.2711609375,9.972576835937499Q12.2738609375,10.0033368359375,12.2711609375,10.0340968359375L12.2648609375,10.1063468359375L8.7685609375,12.4114568359375L8.7685609375,7.8774868359375L8.7685609375,7.6002768359375Z" fill="#35BC62" fill-opacity="1"/></g></g></svg>